<svg width="300" height="80" viewBox="0 0 300 80" fill="none" xmlns="http://www.w3.org/2000/svg">
<g filter="url(#filter0_d_3_2)">
<path d="M50 35L250 35" stroke="#8D56AE" stroke-width="60" stroke-linecap="round"/>
</g>
<g filter="url(#filter1_d_3_2)">
<path d="M74 35L227 35" stroke="#1F1F1F" stroke-width="45" stroke-linecap="round"/>
</g>
<path d="M76.8125 38.2841H82.3352L84.3295 40.7898L87.7045 44.625L92.1023 49.9432H85.8125L82.6932 46.3125L80.5966 43.2955L76.8125 38.2841ZM92.0511 34.9091C92.0511 37.8239 91.4844 40.2827 90.3509 42.2855C89.2173 44.2798 87.6875 45.7926 85.7614 46.8239C83.8352 47.8466 81.6875 48.358 79.3182 48.358C76.9318 48.358 74.7756 47.8423 72.8494 46.8111C70.9318 45.7713 69.4062 44.2543 68.2727 42.2599C67.1477 40.2571 66.5852 37.8068 66.5852 34.9091C66.5852 31.9943 67.1477 29.5398 68.2727 27.5455C69.4062 25.5426 70.9318 24.0298 72.8494 23.0071C74.7756 21.9759 76.9318 21.4602 79.3182 21.4602C81.6875 21.4602 83.8352 21.9759 85.7614 23.0071C87.6875 24.0298 89.2173 25.5426 90.3509 27.5455C91.4844 29.5398 92.0511 31.9943 92.0511 34.9091ZM84.7386 34.9091C84.7386 33.3409 84.5298 32.0199 84.1122 30.946C83.7031 29.8636 83.0938 29.0455 82.2841 28.4915C81.483 27.929 80.4943 27.6477 79.3182 27.6477C78.142 27.6477 77.1491 27.929 76.3395 28.4915C75.5384 29.0455 74.929 29.8636 74.5114 30.946C74.1023 32.0199 73.8977 33.3409 73.8977 34.9091C73.8977 36.4773 74.1023 37.8026 74.5114 38.8849C74.929 39.9588 75.5384 40.777 76.3395 41.3395C77.1491 41.8935 78.142 42.1705 79.3182 42.1705C80.4943 42.1705 81.483 41.8935 82.2841 41.3395C83.0938 40.777 83.7031 39.9588 84.1122 38.8849C84.5298 37.8026 84.7386 36.4773 84.7386 34.9091ZM108.21 39.4091V28.3636H115.267V48H108.568V44.267H108.364C107.938 45.5199 107.192 46.5 106.126 47.2074C105.061 47.9062 103.795 48.2557 102.33 48.2557C100.957 48.2557 99.7557 47.9403 98.7244 47.3097C97.7017 46.679 96.9048 45.8097 96.3338 44.7017C95.7713 43.5937 95.4858 42.3239 95.4773 40.892V28.3636H102.534V39.4091C102.543 40.3807 102.79 41.1435 103.276 41.6974C103.77 42.2514 104.46 42.5284 105.347 42.5284C105.935 42.5284 106.442 42.4048 106.868 42.1577C107.303 41.902 107.635 41.544 107.865 41.0838C108.104 40.6151 108.219 40.0568 108.21 39.4091ZM118.856 48V28.3636H125.913V48H118.856ZM122.385 26.3182C121.43 26.3182 120.612 26.0028 119.93 25.3722C119.248 24.7415 118.907 23.983 118.907 23.0966C118.907 22.2102 119.248 21.4517 119.93 20.821C120.612 20.1903 121.43 19.875 122.385 19.875C123.348 19.875 124.166 20.1903 124.839 20.821C125.521 21.4517 125.862 22.2102 125.862 23.0966C125.862 23.983 125.521 24.7415 124.839 25.3722C124.166 26.0028 123.348 26.3182 122.385 26.3182ZM129.713 48V44.1136L138.304 33.8352V33.733H130.02V28.3636H146.639V32.6591L138.815 42.5284V42.6307H146.946V48H129.713ZM151.053 48V44.1136L159.644 33.8352V33.733H151.36V28.3636H167.979V32.6591L160.155 42.5284V42.6307H168.286V48H151.053ZM172.188 48V28.3636H179.245V48H172.188ZM175.717 26.3182C174.762 26.3182 173.944 26.0028 173.262 25.3722C172.58 24.7415 172.239 23.983 172.239 23.0966C172.239 22.2102 172.58 21.4517 173.262 20.821C173.944 20.1903 174.762 19.875 175.717 19.875C176.68 19.875 177.498 20.1903 178.171 20.821C178.853 21.4517 179.194 22.2102 179.194 23.0966C179.194 23.983 178.853 24.7415 178.171 25.3722C177.498 26.0028 176.68 26.3182 175.717 26.3182ZM192.301 48.358C190.17 48.358 188.346 47.9361 186.829 47.0923C185.312 46.2401 184.149 45.0554 183.339 43.5384C182.529 42.0128 182.125 40.2443 182.125 38.233C182.125 36.2216 182.529 34.4574 183.339 32.9403C184.149 31.4148 185.312 30.2301 186.829 29.3864C188.346 28.5341 190.17 28.108 192.301 28.108C194.227 28.108 195.893 28.4574 197.299 29.1562C198.714 29.8466 199.809 30.8267 200.585 32.0966C201.36 33.358 201.752 34.8409 201.761 36.5455H195.216C195.122 35.5142 194.824 34.7301 194.321 34.1932C193.826 33.6477 193.187 33.375 192.403 33.375C191.789 33.375 191.252 33.554 190.792 33.9119C190.332 34.2614 189.974 34.794 189.718 35.5099C189.463 36.2173 189.335 37.108 189.335 38.1818C189.335 39.2557 189.463 40.1506 189.718 40.8665C189.974 41.5739 190.332 42.1065 190.792 42.4645C191.252 42.8139 191.789 42.9886 192.403 42.9886C192.923 42.9886 193.383 42.8693 193.784 42.6307C194.184 42.3835 194.508 42.0256 194.755 41.5568C195.011 41.0795 195.164 40.5 195.216 39.8182H201.761C201.735 41.5483 201.339 43.0568 200.572 44.3438C199.805 45.6222 198.718 46.6108 197.312 47.3097C195.914 48.0085 194.244 48.358 192.301 48.358ZM210.144 48.3068C208.891 48.3068 207.783 48.1023 206.82 47.6932C205.866 47.2756 205.116 46.6449 204.57 45.8011C204.025 44.9574 203.752 43.8835 203.752 42.5795C203.752 41.5057 203.935 40.5895 204.302 39.831C204.668 39.0639 205.18 38.4375 205.836 37.9517C206.492 37.4659 207.255 37.0952 208.124 36.8395C209.002 36.5838 209.948 36.4176 210.962 36.3409C212.062 36.2557 212.944 36.1534 213.609 36.0341C214.282 35.9062 214.768 35.7315 215.066 35.5099C215.364 35.2798 215.513 34.9773 215.513 34.6023V34.5511C215.513 34.0398 215.317 33.6477 214.925 33.375C214.533 33.1023 214.031 32.9659 213.417 32.9659C212.744 32.9659 212.194 33.1151 211.768 33.4134C211.35 33.7031 211.099 34.1506 211.013 34.7557H204.519C204.604 33.5625 204.984 32.4631 205.657 31.4574C206.339 30.4432 207.332 29.6335 208.636 29.0284C209.94 28.4148 211.567 28.108 213.519 28.108C214.925 28.108 216.187 28.2741 217.303 28.6065C218.42 28.9304 219.37 29.3864 220.154 29.9744C220.938 30.554 221.535 31.2358 221.944 32.0199C222.362 32.7955 222.57 33.6392 222.57 34.5511V48H215.974V45.2386H215.82C215.428 45.9716 214.951 46.5639 214.388 47.0156C213.835 47.4673 213.2 47.7955 212.484 48C211.776 48.2045 210.996 48.3068 210.144 48.3068ZM212.445 43.858C212.982 43.858 213.485 43.7472 213.954 43.5256C214.431 43.304 214.819 42.9844 215.117 42.5668C215.415 42.1491 215.565 41.642 215.565 41.0455V39.4091C215.377 39.4858 215.177 39.5582 214.964 39.6264C214.759 39.6946 214.538 39.7585 214.299 39.8182C214.069 39.8778 213.822 39.9332 213.558 39.9844C213.302 40.0355 213.033 40.0824 212.752 40.125C212.207 40.2102 211.759 40.3509 211.41 40.5469C211.069 40.7344 210.813 40.9688 210.643 41.25C210.481 41.5227 210.4 41.8295 210.4 42.1705C210.4 42.7159 210.592 43.1335 210.975 43.4233C211.359 43.7131 211.849 43.858 212.445 43.858ZM232.999 21.8182V48H225.942V21.8182H232.999Z" fill="white"/>
<defs>
<filter id="filter0_d_3_2" x="16" y="5" width="268" height="68" filterUnits="userSpaceOnUse" color-interpolation-filters="sRGB">
<feFlood flood-opacity="0" result="BackgroundImageFix"/>
<feColorMatrix in="SourceAlpha" type="matrix" values="0 0 0 0 0 0 0 0 0 0 0 0 0 0 0 0 0 0 127 0" result="hardAlpha"/>
<feOffset dy="4"/>
<feGaussianBlur stdDeviation="2"/>
<feComposite in2="hardAlpha" operator="out"/>
<feColorMatrix type="matrix" values="0 0 0 0 0 0 0 0 0 0 0 0 0 0 0 0 0 0 0.25 0"/>
<feBlend mode="normal" in2="BackgroundImageFix" result="effect1_dropShadow_3_2"/>
<feBlend mode="normal" in="SourceGraphic" in2="effect1_dropShadow_3_2" result="shape"/>
</filter>
<filter id="filter1_d_3_2" x="47.5" y="12.5" width="206" height="53" filterUnits="userSpaceOnUse" color-interpolation-filters="sRGB">
<feFlood flood-opacity="0" result="BackgroundImageFix"/>
<feColorMatrix in="SourceAlpha" type="matrix" values="0 0 0 0 0 0 0 0 0 0 0 0 0 0 0 0 0 0 127 0" result="hardAlpha"/>
<feOffset dy="4"/>
<feGaussianBlur stdDeviation="2"/>
<feComposite in2="hardAlpha" operator="out"/>
<feColorMatrix type="matrix" values="0 0 0 0 0 0 0 0 0 0 0 0 0 0 0 0 0 0 0.25 0"/>
<feBlend mode="normal" in2="BackgroundImageFix" result="effect1_dropShadow_3_2"/>
<feBlend mode="normal" in="SourceGraphic" in2="effect1_dropShadow_3_2" result="shape"/>
</filter>
</defs>
</svg>
